<svg class="svg-image" xmlns="http://www.w3.org/2000/svg" viewBox="0 0 150 57.2">

    <path fill="#FFA500" d="M108.5,47.1l7.1-2.2l3.5,6.6l-1.7-0.4l-1,4.5c-3.2-0.7-6.3-2-9-3.8l2.5-3.8C109.4,47.8,109,47.5,108.5,47.1z" />
    <path fill="#FFA500" d="M117.5,5.8l-3,6.8l-7.3-1.7c0.4-0.4,0.9-0.7,1.4-1l-2.7-3.7c2.6-1.9,5.6-3.4,8.7-4.4l1.3,4.4L117.5,5.8z"/>
    <path fill="#FFA500" d="M130.6,6.7l-6.2,4.1l-5.2-5.3c0.6-0.1,1.1-0.1,1.7-0.1l-0.3-4.6c3.3-0.2,6.5,0.1,9.7,1L129,6.3 C129.5,6.4,130.1,6.6,130.6,6.7z"/>
    <path fill="#FFA500" d="M141.1,14.6l-7.4,0.1l-1.5-7.3l1.5,0.8l2.2-4c2.9,1.6,5.4,3.7,7.6,6.1l-3.4,3 C140.4,13.7,140.7,14.1,141.1,14.6z"/>
    <path fill="#FFA500" d="M145.7,26.9l-6.3-4l2.7-7l0.8,1.5l4-2.2c1.6,2.9,2.6,6,3.1,9.3l-4.5,0.7C145.5,25.8,145.6,26.3,145.7,26.9z" />
    <path fill="#FFA500" d="M142.9,39.7l-3.2-6.7l6-4.4l-0.2,1.7l4.6,0.3c-0.3,3.2-1.1,6.5-2.4,9.4l-4.2-1.9L142.9,39.7z"/>
    <path fill="#FFA500" d="M133.6,49l1-7.4l7.4-0.4c-0.3,0.5-0.7,0.9-1,1.3l3.6,2.8c-2,2.6-4.4,4.9-7.1,6.6L135,48L133.6,49z"/>
    <path fill="#FFA500" d="M120.8,51.7l4.8-5.7c0,0,6.4,3.6,6.5,3.6c-0.5,0.2-1,0.4-1.6,0.6l1.6,4.3c-3.1,1.1-6.3,1.7-9.6,1.7l0-4.6 L120.8,51.7z"/>
    <path fill="#4F98BC" d="M5,15.6v22.3H0V15.6H5z"/>
    <path fill="#4F98BC" d="M9.3,26.9c0-2-0.1-3.7-0.1-5.2h4.4l0.2,2.3h0.1c0.7-1.1,2.3-2.6,5-2.6c3.3,0,5.8,2.2,5.8,7v9.6h-5v-9 c0-2.1-0.7-3.5-2.6-3.5c-1.4,0-2.2,1-2.6,1.9c-0.1,0.3-0.2,0.8-0.2,1.3v9.3h-5V26.9z"/>
    <path fill="#4F98BC" d="M29.3,37.9V25.5h-2.2v-3.7h2.2v-0.6c0-2,0.6-4.1,2-5.4c1.3-1.2,3-1.6,4.5-1.6c1.1,0,2,0.2,2.6,0.3l-0.2,3.9 c-0.4-0.1-1-0.2-1.6-0.2c-1.7,0-2.4,1.3-2.4,2.9v0.8h3.2v3.7h-3.2v12.5H29.3z"/>
    <path fill="#4F98BC" d="M55.7,29.7c0,5.9-4.2,8.6-8.5,8.6c-4.7,0-8.4-3.1-8.4-8.3c0-5.3,3.4-8.6,8.7-8.6 C52.3,21.4,55.7,24.8,55.7,29.7z M43.9,29.8c0,2.8,1.2,4.9,3.3,4.9c2,0,3.2-2,3.2-4.9c0-2.4-0.9-4.8-3.2-4.8 C44.9,25,43.9,27.4,43.9,29.8z"/>
    <path fill="#4F98BC" d="M61.6,19.9h-6v-4.2h17.2v4.2h-6.1v18.1h-5V19.9z"/>
    <path fill="#4F98BC" d="M73.5,27.1c0-2.4,0-3.9-0.1-5.3h4.3l0.2,3H78c0.8-2.4,2.8-3.4,4.4-3.4c0.5,0,0.7,0,1.1,0.1v4.7 c-0.4-0.1-0.8-0.1-1.4-0.1c-1.9,0-3.1,1-3.4,2.5c-0.1,0.3-0.1,0.7-0.1,1.1v8.2h-5V27.1z"/>
    <path fill="#4F98BC" d="M99.2,34c0,1.5,0.1,3,0.3,3.9h-4.5l-0.3-1.6h-0.1c-1.1,1.3-2.7,2-4.6,2c-3.3,0-5.2-2.4-5.2-5 c0-4.2,3.8-6.2,9.5-6.2v-0.2c0-0.9-0.5-2.1-2.9-2.1c-1.7,0-3.4,0.6-4.5,1.2l-0.9-3.2c1.1-0.6,3.3-1.5,6.3-1.5c5.4,0,7.1,3.2,7.1,7 V34z M94.3,30.3c-2.6,0-4.7,0.6-4.7,2.5c0,1.3,0.9,1.9,2,1.9c1.2,0,2.3-0.8,2.6-1.9c0.1-0.3,0.1-0.6,0.1-0.9V30.3z"/>
    <path fill="#4F98BC" d="M115.4,37.5c-0.9,0.4-2.6,0.8-4.5,0.8c-5.2,0-8.6-3.2-8.6-8.3c0-4.7,3.2-8.6,9.3-8.6c1.3,0,2.8,0.2,3.8,0.6 l-0.8,3.7c-0.6-0.3-1.5-0.5-2.8-0.5c-2.6,0-4.4,1.9-4.3,4.5c0,2.9,2,4.5,4.4,4.5c1.2,0,2.1-0.2,2.9-0.5L115.4,37.5z"/>
    <path fill="#4F98BC" d="M123.2,28.6L123.2,28.6c0.4-0.7,0.8-1.4,1.2-2l3.3-4.9h6.1l-5.8,6.6l6.6,9.6h-6.2l-3.9-6.7l-1.3,1.6v5.1h-5 V14.4h5V28.6z"/>

</svg>